<svg width="53.3mm" height="77mm" version="1.1" viewBox="0 0 53.3 77" xmlns="http://www.w3.org/2000/svg"><path transform="scale(.26458)" d="m0 32v249h10l10 10h123l10-10h43l5.4492-5.4492v-243.55zm10 47a6 6 0 0 1 6 6 6 6 0 0 1-6 6 6 6 0 0 1-6-6 6 6 0 0 1 6-6zm182 5a6 6 0 0 1 6 6 6 6 0 0 1-6 6 6 6 0 0 1-6-6 6 6 0 0 1 6-6zm-163 191a6 6 0 0 1 6 6 6 6 0 0 1-6 6 6 6 0 0 1-6-6 6 6 0 0 1 6-6zm105 0a6 6 0 0 1 6 6 6 6 0 0 1-6 6 6 6 0 0 1-6-6 6 6 0 0 1 6-6z" fill="#2d6893" stroke="#7096a6" stroke-dashoffset=".3" stroke-linecap="round" style="paint-order:markers fill stroke"/><g><g fill="#272b2f"><ellipse id="pin-1-1" cx="50.8" cy="71.967" rx=".92604" ry=".92604" style="paint-order:markers fill stroke"/><ellipse id="pin-1-2" cx="50.8" cy="69.585" rx=".92604" ry=".92604" style="paint-order:markers fill stroke"/><ellipse id="pin-1-3" cx="50.8" cy="67.204" rx=".92604" ry=".92604" style="paint-order:markers fill stroke"/><ellipse id="pin-1-4" cx="50.8" cy="64.823" rx=".92604" ry=".92604" style="paint-order:markers fill stroke"/><ellipse id="pin-1-5" cx="50.8" cy="62.442" rx=".92604" ry=".92604" style="paint-order:markers fill stroke"/><ellipse id="pin-1-6" cx="50.8" cy="60.06" rx=".92604" ry=".92604" style="paint-order:markers fill stroke"/><ellipse id="pin-1-7" cx="50.8" cy="57.679" rx=".92604" ry=".92604" style="paint-order:markers fill stroke"/><ellipse id="pin-1-8" cx="50.8" cy="55.298" rx=".92604" ry=".92604" style="paint-order:markers fill stroke"/><ellipse id="pin-2-10" cx="50.8" cy="27.252" rx=".92604" ry=".92604" style="paint-order:markers fill stroke"/><ellipse id="pin-3-1" cx="2.6458" cy="71.967" rx=".92604" ry=".92604" style="paint-order:markers fill stroke"/><ellipse id="pin-3-2" cx="2.6458" cy="69.585" rx=".92604" ry=".92604" style="paint-order:markers fill stroke"/><ellipse id="pin-3-3" cx="2.6458" cy="67.204" rx=".92604" ry=".92604" style="paint-order:markers fill stroke"/><ellipse id="pin-3-4" cx="2.6458" cy="64.823" rx=".92604" ry=".92604" style="paint-order:markers fill stroke"/><ellipse id="pin-3-5" cx="2.6458" cy="62.442" rx=".92604" ry=".92604" style="paint-order:markers fill stroke"/><ellipse id="pin-3-6" cx="2.6458" cy="60.06" rx=".92604" ry=".92604" style="paint-order:markers fill stroke"/><ellipse id="pin-4-8" cx="2.6458" cy="36.513" rx=".92604" ry=".92604" style="paint-order:markers fill stroke"/><ellipse id="pin-4-7" cx="2.6458" cy="38.894" rx=".92604" ry=".92604" style="paint-order:markers fill stroke"/><ellipse id="pin-4-6" cx="2.6458" cy="41.275" rx=".92604" ry=".92604" style="paint-order:markers fill stroke"/><ellipse id="pin-4-5" cx="2.6458" cy="43.656" rx=".92604" ry=".92604" style="paint-order:markers fill stroke"/><ellipse id="pin-4-4" cx="2.6458" cy="46.037" rx=".92604" ry=".92604" style="paint-order:markers fill stroke"/><ellipse id="pin-4-3" cx="2.6458" cy="48.419" rx=".92604" ry=".92604" style="paint-order:markers fill stroke"/><ellipse id="pin-4-2" cx="2.6458" cy="50.8" rx=".92604" ry=".92604" style="paint-order:markers fill stroke"/><ellipse id="pin-4-1" cx="2.6458" cy="53.181" rx=".92604" ry=".92604" style="paint-order:markers fill stroke"/><ellipse id="pin-2-9" cx="50.8" cy="29.633" rx=".92604" ry=".92604" style="paint-order:markers fill stroke"/><ellipse id="pin-2-8" cx="50.8" cy="32.015" rx=".92604" ry=".92604" style="paint-order:markers fill stroke"/><ellipse id="pin-2-7" cx="50.8" cy="34.396" rx=".92604" ry=".92604" style="paint-order:markers fill stroke"/><ellipse id="pin-2-6" cx="50.8" cy="36.777" rx=".92604" ry=".92604" style="paint-order:markers fill stroke"/><ellipse id="pin-2-5" cx="50.8" cy="39.158" rx=".92604" ry=".92604" style="paint-order:markers fill stroke"/><ellipse id="pin-2-4" cx="50.8" cy="41.54" rx=".92604" ry=".92604" style="paint-order:markers fill stroke"/><ellipse id="pin-2-3" cx="50.8" cy="43.921" rx=".92604" ry=".92604" style="paint-order:markers fill stroke"/><ellipse id="pin-2-2" cx="50.8" cy="46.302" rx=".92604" ry=".92604" style="paint-order:markers fill stroke"/><ellipse id="pin-2-1" cx="50.8" cy="48.683" rx=".92604" ry=".92604" style="paint-order:markers fill stroke"/></g><g fill="#c28a44"><ellipse id="pin-5-3" cx="25.4" cy="74.613" rx=".92604" ry=".92604" style="paint-order:markers fill stroke"/><ellipse id="pin-5-6" cx="25.4" cy="71.967" rx=".92604" ry=".92604" style="paint-order:markers fill stroke"/><ellipse id="pin-5-5" cx="28.046" cy="71.967" rx=".92604" ry=".92604" style="paint-order:markers fill stroke"/><ellipse id="pin-5-2" cx="28.046" cy="74.613" rx=".92604" ry=".92604" style="paint-order:markers fill stroke"/><ellipse id="pin-5-1" cx="30.692" cy="74.613" rx=".92604" ry=".92604" style="paint-order:markers fill stroke"/><ellipse id="pin-5-4" cx="30.692" cy="71.967" rx=".92604" ry=".92604" style="paint-order:markers fill stroke"/><ellipse id="pin-6-6" cx="44.979" cy="24.077" rx=".92604" ry=".92604" style="paint-order:markers fill stroke"/><ellipse id="pin-6-5" cx="47.625" cy="24.077" rx=".92604" ry=".92604" style="paint-order:markers fill stroke"/><ellipse id="pin-6-4" cx="44.979" cy="26.723" rx=".92604" ry=".92604" style="paint-order:markers fill stroke"/><ellipse id="pin-6-3" cx="47.625" cy="26.723" rx=".92604" ry=".92604" style="paint-order:markers fill stroke"/><ellipse id="pin-6-2" cx="44.979" cy="29.369" rx=".92604" ry=".92604" style="paint-order:markers fill stroke"/><ellipse id="pin-6-1" cx="47.625" cy="29.369" rx=".92604" ry=".92604" style="paint-order:markers fill stroke"/></g><rect x="3.4396" y="6.8792" width="8.9958" height="13.494" fill="#272b2f" style="paint-order:markers fill stroke"/><rect x="32.279" y="2.3812" width="11.642" height="15.61" fill="#b4b4b4" style="paint-order:markers fill stroke"/></g></svg>
