<svg width="18mm" height="45mm" version="1.1" viewBox="0 0 18 45" xmlns="http://www.w3.org/2000/svg"><path transform="scale(.26458)" d="m0.47656 8.0371v161.56h67.078v-161.56zm5.1934 1.8848a3.3071 3.3071 0 0 1 3.3066 3.3066 3.3071 3.3071 0 0 1-3.3066 3.3066 3.3071 3.3071 0 0 1-3.3086-3.3066 3.3071 3.3071 0 0 1 3.3086-3.3066zm56.691 0a3.3071 3.3071 0 0 1 3.3086 3.3066 3.3071 3.3071 0 0 1-3.3086 3.3066 3.3071 3.3071 0 0 1-3.3066-3.3066 3.3071 3.3071 0 0 1 3.3066-3.3066zm-56.691 151.18a3.3071 3.3071 0 0 1 3.3066 3.3086 3.3071 3.3071 0 0 1-3.3066 3.3066 3.3071 3.3071 0 0 1-3.3086-3.3066 3.3071 3.3071 0 0 1 3.3086-3.3086zm56.691 0a3.3071 3.3071 0 0 1 3.3086 3.3086 3.3071 3.3071 0 0 1-3.3086 3.3066 3.3071 3.3071 0 0 1-3.3066-3.3066 3.3071 3.3071 0 0 1 3.3066-3.3086z" fill="#2d6893" stroke="#7096a6" stroke-dashoffset=".3" stroke-linecap="round" stroke-width=".95431" style="paint-order:markers fill stroke"/><g><rect x="5.25" width="7.25" height="6.5" fill="#b4b4b4" style="paint-order:markers fill stroke"/><g fill="#272b2f"><ellipse id="pin-left-15" cx="1.75" cy="5.75" rx=".92604" ry=".92604" style="paint-order:markers fill stroke"/><ellipse id="pin-left-14" cx="1.75" cy="8.25" rx=".92604" ry=".92604" style="paint-order:markers fill stroke"/><ellipse id="pin-left-13" cx="1.75" cy="10.75" rx=".92604" ry=".92604" style="paint-order:markers fill stroke"/><ellipse id="pin-left-12" cx="1.75" cy="13.25" rx=".92604" ry=".92604" style="paint-order:markers fill stroke"/><ellipse id="pin-left-11" cx="1.75" cy="15.75" rx=".92604" ry=".92604" style="paint-order:markers fill stroke"/><ellipse id="pin-left-10" cx="1.75" cy="18.25" rx=".92604" ry=".92604" style="paint-order:markers fill stroke"/><ellipse id="pin-left-9" cx="1.75" cy="20.75" rx=".92604" ry=".92604" style="paint-order:markers fill stroke"/><ellipse id="pin-left-8" cx="1.75" cy="23.25" rx=".92604" ry=".92604" style="paint-order:markers fill stroke"/><ellipse id="pin-left-7" cx="1.75" cy="25.75" rx=".92604" ry=".92604" style="paint-order:markers fill stroke"/><ellipse id="pin-left-6" cx="1.75" cy="28.25" rx=".92604" ry=".92604" style="paint-order:markers fill stroke"/><ellipse id="pin-left-5" cx="1.75" cy="30.75" rx=".92604" ry=".92604" style="paint-order:markers fill stroke"/><ellipse id="pin-left-4" cx="1.75" cy="33.25" rx=".92604" ry=".92604" style="paint-order:markers fill stroke"/><ellipse id="pin-left-3" cx="1.75" cy="35.75" rx=".92604" ry=".92604" style="paint-order:markers fill stroke"/><ellipse id="pin-left-2" cx="1.75" cy="38.25" rx=".92604" ry=".92604" style="paint-order:markers fill stroke"/><ellipse id="pin-left-1" cx="1.75" cy="40.75" rx=".92604" ry=".92604" style="paint-order:markers fill stroke"/><ellipse id="pin-right-1" cx="16" cy="40.75" rx=".92604" ry=".92604" style="paint-order:markers fill stroke"/><ellipse id="pin-right-2" cx="16" cy="38.25" rx=".92604" ry=".92604" style="paint-order:markers fill stroke"/><ellipse id="pin-right-3" cx="16" cy="35.75" rx=".92604" ry=".92604" style="paint-order:markers fill stroke"/><ellipse id="pin-right-4" cx="16" cy="33.25" rx=".92604" ry=".92604" style="paint-order:markers fill stroke"/><ellipse id="pin-right-5" cx="16" cy="30.75" rx=".92604" ry=".92604" style="paint-order:markers fill stroke"/><ellipse id="pin-right-6" cx="16" cy="28.25" rx=".92604" ry=".92604" style="paint-order:markers fill stroke"/><ellipse id="pin-right-7" cx="16" cy="25.75" rx=".92604" ry=".92604" style="paint-order:markers fill stroke"/><ellipse id="pin-right-8" cx="16" cy="23.25" rx=".92604" ry=".92604" style="paint-order:markers fill stroke"/><ellipse id="pin-right-9" cx="16" cy="20.75" rx=".92604" ry=".92604" style="paint-order:markers fill stroke"/><ellipse id="pin-right-10" cx="16" cy="18.25" rx=".92604" ry=".92604" style="paint-order:markers fill stroke"/><ellipse id="pin-right-11" cx="16" cy="15.75" rx=".92604" ry=".92604" style="paint-order:markers fill stroke"/><ellipse id="pin-right-12" cx="16" cy="13.25" rx=".92604" ry=".92604" style="paint-order:markers fill stroke"/><ellipse id="pin-right-13" cx="16" cy="10.75" rx=".92604" ry=".92604" style="paint-order:markers fill stroke"/><ellipse id="pin-right-14" cx="16" cy="8.25" rx=".92604" ry=".92604" style="paint-order:markers fill stroke"/><ellipse id="pin-right-15" cx="16" cy="5.75" rx=".92604" ry=".92604" style="paint-order:markers fill stroke"/></g></g></svg>
