<svg width="100" height="100" version="1.1" viewBox="0 0 26.458 26.458" xmlns="http://www.w3.org/2000/svg"><path transform="scale(.26458)" d="m20 0c-10 0-20 10-20 20v60c0 10 10 20 20 20h60c10 0 20-10 20-20v-60c0-10-10-20-20-20h-7.4062v31.219c0 3.4854-2.8857 6.377-6.3711 6.377h-32.443c-3.4854 0-6.3711-2.8915-6.3711-6.377v-31.219zm54.5 56c2.4853 0 4.5 2.0147 4.5 4.5s-2.0147 4.5-4.5 4.5-4.5-2.0147-4.5-4.5 2.0147-4.5 4.5-4.5zm13 0c2.4853 0 4.5 2.0147 4.5 4.5s-2.0147 4.5-4.5 4.5-4.5-2.0147-4.5-4.5 2.0147-4.5 4.5-4.5zm-13 11c2.4853 0 4.5 2.0147 4.5 4.5s-2.0147 4.5-4.5 4.5-4.5-2.0147-4.5-4.5 2.0147-4.5 4.5-4.5zm13 0c2.4853 0 4.5 2.0147 4.5 4.5s-2.0147 4.5-4.5 4.5-4.5-2.0147-4.5-4.5 2.0147-4.5 4.5-4.5zm-13 11c2.4853 0 4.5 2.0147 4.5 4.5s-2.0147 4.5-4.5 4.5-4.5-2.0147-4.5-4.5 2.0147-4.5 4.5-4.5zm13 0c2.4853 0 4.5 2.0147 4.5 4.5s-2.0147 4.5-4.5 4.5-4.5-2.0147-4.5-4.5 2.0147-4.5 4.5-4.5z" fill="#fff" style="paint-order:markers fill stroke"/><g fill="#272b2f"><circle cx="19.711" cy="16.007" r=".66146" style="paint-order:markers fill stroke"/><circle cx="19.711" cy="18.918" r=".66146" style="paint-order:markers fill stroke"/><circle cx="23.151" cy="18.918" r=".66146" style="paint-order:markers fill stroke"/><circle cx="19.711" cy="21.828" r=".66146" style="paint-order:markers fill stroke"/><circle cx="23.151" cy="21.828" r=".66146" style="paint-order:markers fill stroke"/><circle cx="23.151" cy="16.007" r=".66146" style="paint-order:markers fill stroke"/><path d="m8.6238 0v8.26c0 0.18581 0.12838 0.31419 0.31419 0.31419h8.584c0.18581 0 0.31264-0.12838 0.31264-0.31419v-8.26z" style="paint-order:markers fill stroke"/><circle transform="rotate(90)" cx="13.229" cy="-5.2917" r=".92604" style="paint-order:markers fill stroke"/><circle transform="rotate(90)" cx="13.229" cy="-7.9375" r=".92604" style="paint-order:markers fill stroke"/><circle transform="rotate(90)" cx="13.229" cy="-10.583" r=".92604" style="paint-order:markers fill stroke"/><circle transform="rotate(90)" cx="13.229" cy="-2.6458" r=".92604" style="paint-order:markers fill stroke"/><circle transform="rotate(90)" cx="15.875" cy="-2.6458" r=".92604" style="paint-order:markers fill stroke"/><circle transform="rotate(90)" cx="15.875" cy="-5.2917" r=".92604" style="paint-order:markers fill stroke"/><circle transform="rotate(90)" cx="15.875" cy="-7.9375" r=".92604" style="paint-order:markers fill stroke"/><circle transform="rotate(90)" cx="15.875" cy="-10.583" r=".92604" style="paint-order:markers fill stroke"/></g></svg>
