<svg width="18mm" height="33mm" version="1.1" viewBox="0 0 18 33" xmlns="http://www.w3.org/2000/svg"><rect width="18" height="33" fill="#2d6893" stroke="#7096a6" stroke-dashoffset=".3" stroke-linejoin="round" stroke-width=".25" style="paint-order:markers fill stroke"/><g fill="#272b2f"><ellipse id="pin-GND-4" cx="4" cy="1.5" rx=".92604" ry=".92604" style="paint-order:markers fill stroke"/><ellipse id="pin-10" cx="1.5" cy="1.5" rx=".92604" ry=".92604" style="paint-order:markers fill stroke"/><ellipse id="pin-11" cx="1.5" cy="4" rx=".92604" ry=".92604" style="paint-order:markers fill stroke"/><ellipse id="pin-12" cx="1.5" cy="6.75" rx=".92604" ry=".92604" style="paint-order:markers fill stroke"/><ellipse id="pin-13" cx="1.5" cy="9.5" rx=".92604" ry=".92604" style="paint-order:markers fill stroke"/><ellipse id="pin-A0" cx="1.5" cy="12.25" rx=".92604" ry=".92604" style="paint-order:markers fill stroke"/><ellipse id="pin-A1" cx="1.5" cy="15" rx=".92604" ry=".92604" style="paint-order:markers fill stroke"/><ellipse id="pin-A2" cx="1.5" cy="17.75" rx=".92604" ry=".92604" style="paint-order:markers fill stroke"/><ellipse id="pin-A7" cx="11.5" cy="4" rx=".92604" ry=".92604" style="paint-order:markers fill stroke"/><ellipse id="pin-A6" cx="14" cy="4" rx=".92604" ry=".92604" style="paint-order:markers fill stroke"/><ellipse id="pin-A3" cx="1.5" cy="20.5" rx=".92604" ry=".92604" style="paint-order:markers fill stroke"/><ellipse id="pin-VCC-2" cx="1.5" cy="23.25" rx=".92604" ry=".92604" style="paint-order:markers fill stroke"/><ellipse id="pin-RST-3" cx="1.5" cy="26" rx=".92604" ry=".92604" style="paint-order:markers fill stroke"/><ellipse id="pin-GND-3" cx="1.5" cy="28.75" rx=".92604" ry=".92604" style="paint-order:markers fill stroke"/><ellipse id="pin-9" cx="16.5" cy="1.5" rx=".92604" ry=".92604" style="paint-order:markers fill stroke"/><ellipse id="pin-8" cx="16.5" cy="4" rx=".92604" ry=".92604" style="paint-order:markers fill stroke"/><ellipse id="pin-7" cx="16.5" cy="6.75" rx=".92604" ry=".92604" style="paint-order:markers fill stroke"/><ellipse id="pin-6" cx="16.5" cy="9.5" rx=".92604" ry=".92604" style="paint-order:markers fill stroke"/><ellipse id="pin-5" cx="16.5" cy="12.25" rx=".92604" ry=".92604" style="paint-order:markers fill stroke"/><ellipse id="pin-4" cx="16.5" cy="15" rx=".92604" ry=".92604" style="paint-order:markers fill stroke"/><ellipse id="pin-3" cx="16.5" cy="17.75" rx=".92604" ry=".92604" style="paint-order:markers fill stroke"/><ellipse id="pin-2" cx="16.5" cy="20.5" rx=".92604" ry=".92604" style="paint-order:markers fill stroke"/><ellipse id="pin-GND-1" cx="16.5" cy="23.25" rx=".92604" ry=".92604" style="paint-order:markers fill stroke"/><ellipse id="pin-RST-1" cx="16.5" cy="26" rx=".92604" ry=".92604" style="paint-order:markers fill stroke"/><ellipse id="pin-RX-1" cx="16.5" cy="28.75" rx=".92604" ry=".92604" style="paint-order:markers fill stroke"/><ellipse id="pin-TX-1" cx="16.5" cy="31.5" rx=".92604" ry=".92604" style="paint-order:markers fill stroke"/><ellipse id="pin-RAW" cx="1.5" cy="31.5" rx=".92604" ry=".92604" style="paint-order:markers fill stroke"/><ellipse id="pin-GND-2" cx="4" cy="31.5" rx=".92604" ry=".92604" style="paint-order:markers fill stroke"/><ellipse id="pin-VCC-1" cx="6.5" cy="31.5" rx=".92604" ry=".92604" style="paint-order:markers fill stroke"/><ellipse id="pin-RX-2" cx="9" cy="31.5" rx=".92604" ry=".92604" style="paint-order:markers fill stroke"/><ellipse id="pin-TX-2" cx="11.5" cy="31.5" rx=".92604" ry=".92604" style="paint-order:markers fill stroke"/><ellipse id="pin-RST-2" cx="14" cy="31.5" rx=".92604" ry=".92604" style="paint-order:markers fill stroke"/><ellipse id="pin-VCC-3" cx="6.5" cy="1.5" rx=".92604" ry=".92604" style="paint-order:markers fill stroke"/><ellipse id="pin-A5" cx="11.5" cy="1.5" rx=".92604" ry=".92604" style="paint-order:markers fill stroke"/><ellipse id="pin-A4" cx="14" cy="1.5" rx=".92604" ry=".92604" style="paint-order:markers fill stroke"/></g></svg>
