<svg width="32mm" height="68mm" version="1.1" viewBox="0 0 32 68" xmlns="http://www.w3.org/2000/svg"><path transform="scale(.26458)" d="m11.338 5c-6.2816 0-11.338 5.0563-11.338 11.338v229.32c0 6.2816 5.0563 11.338 11.338 11.338h92.324c6.2816 0 11.338-5.0563 11.338-11.338v-229.32c0-6.2816-5.0563-11.338-11.338-11.338zm1.6621 8a5 5 0 0 1 5 5 5 5 0 0 1-5 5 5 5 0 0 1-5-5 5 5 0 0 1 5-5zm89 0a5 5 0 0 1 5 5 5 5 0 0 1-5 5 5 5 0 0 1-5-5 5 5 0 0 1 5-5zm-89 226a5 5 0 0 1 5 5 5 5 0 0 1-5 5 5 5 0 0 1-5-5 5 5 0 0 1 5-5zm89 0a5 5 0 0 1 5 5 5 5 0 0 1-5 5 5 5 0 0 1-5-5 5 5 0 0 1 5-5z" fill="#1a7619" style="paint-order:markers fill stroke"/><g><g fill="#b4b4b4"><rect x="25.929" y="8.7312" width="5.8208" height="7.6729" style="paint-order:markers fill stroke"/><rect x="25.929" y="21.696" width="5.8208" height="7.6729" style="paint-order:markers fill stroke"/><rect x="23.283" y="50.271" width="7.6729" height="10.848" style="paint-order:markers fill stroke"/><rect x="7.4083" y="54.769" width="11.642" height="11.642" style="paint-order:markers fill stroke"/><rect x="6.6146" width="17.462" height="4.2333" style="paint-order:markers fill stroke"/></g><ellipse cx="2.1167" cy="59.399" rx=".79375" ry=".92604" fill="#1a7619" style="paint-order:markers fill stroke"/><g fill="#272b2f"><ellipse id="pin-left-1" cx="2.1167" cy="59.531" rx=".92604" ry=".92604" style="paint-order:markers fill stroke"/><ellipse id="pin-left-2" cx="2.1167" cy="56.885" rx=".92604" ry=".92604" style="paint-order:markers fill stroke"/><ellipse id="pin-right-2" cx="4.7625" cy="56.885" rx=".92604" ry=".92604" style="paint-order:markers fill stroke"/><ellipse id="pin-left-3" cx="2.1167" cy="54.24" rx=".92604" ry=".92604" style="paint-order:markers fill stroke"/><ellipse id="pin-right-3" cx="4.7625" cy="54.24" rx=".92604" ry=".92604" style="paint-order:markers fill stroke"/><ellipse id="pin-left-4" cx="2.1167" cy="51.594" rx=".92604" ry=".92604" style="paint-order:markers fill stroke"/><ellipse id="pin-right-4" cx="4.7625" cy="51.594" rx=".92604" ry=".92604" style="paint-order:markers fill stroke"/><ellipse id="pin-left-5" cx="2.1167" cy="48.948" rx=".92604" ry=".92604" style="paint-order:markers fill stroke"/><ellipse id="pin-right-5" cx="4.7625" cy="48.948" rx=".92604" ry=".92604" style="paint-order:markers fill stroke"/><ellipse id="pin-left-6" cx="2.1167" cy="46.302" rx=".92604" ry=".92604" style="paint-order:markers fill stroke"/><ellipse id="pin-right-6" cx="4.7625" cy="46.302" rx=".92604" ry=".92604" style="paint-order:markers fill stroke"/><ellipse id="pin-left-7" cx="2.1167" cy="43.656" rx=".92604" ry=".92604" style="paint-order:markers fill stroke"/><ellipse id="pin-right-7" cx="4.7625" cy="43.656" rx=".92604" ry=".92604" style="paint-order:markers fill stroke"/><ellipse id="pin-left-8" cx="2.1167" cy="41.01" rx=".92604" ry=".92604" style="paint-order:markers fill stroke"/><ellipse id="pin-right-8" cx="4.7625" cy="41.01" rx=".92604" ry=".92604" style="paint-order:markers fill stroke"/><ellipse id="pin-left-9" cx="2.1167" cy="38.365" rx=".92604" ry=".92604" style="paint-order:markers fill stroke"/><ellipse id="pin-right-9" cx="4.7625" cy="38.365" rx=".92604" ry=".92604" style="paint-order:markers fill stroke"/><ellipse id="pin-left-10" cx="2.1167" cy="35.719" rx=".92604" ry=".92604" style="paint-order:markers fill stroke"/><ellipse id="pin-right-10" cx="4.7625" cy="35.719" rx=".92604" ry=".92604" style="paint-order:markers fill stroke"/><ellipse id="pin-left-11" cx="2.1167" cy="33.073" rx=".92604" ry=".92604" style="paint-order:markers fill stroke"/><ellipse id="pin-right-11" cx="4.7625" cy="33.073" rx=".92604" ry=".92604" style="paint-order:markers fill stroke"/><ellipse id="pin-left-12" cx="2.1167" cy="30.427" rx=".92604" ry=".92604" style="paint-order:markers fill stroke"/><ellipse id="pin-right-12" cx="4.7625" cy="30.427" rx=".92604" ry=".92604" style="paint-order:markers fill stroke"/><ellipse id="pin-left-13" cx="2.1167" cy="27.781" rx=".92604" ry=".92604" style="paint-order:markers fill stroke"/><ellipse id="pin-right-13" cx="4.7625" cy="27.781" rx=".92604" ry=".92604" style="paint-order:markers fill stroke"/><ellipse id="pin-left-14" cx="2.1167" cy="25.135" rx=".92604" ry=".92604" style="paint-order:markers fill stroke"/><ellipse id="pin-right-14" cx="4.7625" cy="25.135" rx=".92604" ry=".92604" style="paint-order:markers fill stroke"/><ellipse id="pin-left-15" cx="2.1167" cy="22.49" rx=".92604" ry=".92604" style="paint-order:markers fill stroke"/><ellipse id="pin-right-15" cx="4.7625" cy="22.49" rx=".92604" ry=".92604" style="paint-order:markers fill stroke"/><ellipse id="pin-left-16" cx="2.1167" cy="19.844" rx=".92604" ry=".92604" style="paint-order:markers fill stroke"/><ellipse id="pin-right-16" cx="4.7625" cy="19.844" rx=".92604" ry=".92604" style="paint-order:markers fill stroke"/><ellipse id="pin-left-17" cx="2.1167" cy="17.198" rx=".92604" ry=".92604" style="paint-order:markers fill stroke"/><ellipse id="pin-right-17" cx="4.7625" cy="17.198" rx=".92604" ry=".92604" style="paint-order:markers fill stroke"/><ellipse id="pin-left-18" cx="2.1167" cy="14.552" rx=".92604" ry=".92604" style="paint-order:markers fill stroke"/><ellipse id="pin-right-18" cx="4.7625" cy="14.552" rx=".92604" ry=".92604" style="paint-order:markers fill stroke"/><ellipse id="pin-left-19" cx="2.1167" cy="11.906" rx=".92604" ry=".92604" style="paint-order:markers fill stroke"/><ellipse id="pin-right-19" cx="4.7625" cy="11.906" rx=".92604" ry=".92604" style="paint-order:markers fill stroke"/><ellipse id="pin-left-20" cx="2.1167" cy="9.2604" rx=".92604" ry=".92604" style="paint-order:markers fill stroke"/><ellipse id="pin-left-21" cx="4.7625" cy="9.2604" rx=".92604" ry=".92604" style="paint-order:markers fill stroke"/><ellipse id="pin-right-20" cx="7.4083" cy="11.906" rx=".92604" ry=".92604" style="paint-order:markers fill stroke"/><ellipse id="pin-left-23" cx="10.054" cy="9.2604" rx=".92604" ry=".92604" style="paint-order:markers fill stroke"/><rect id="pin-right-1" x="3.8365" y="58.605" width="1.8521" height="1.8521" style="paint-order:markers fill stroke"/><rect id="pin-left-22" x="6.4823" y="8.3344" width="1.8521" height="1.8521" style="paint-order:markers fill stroke"/><rect id="pin-right-21" x="9.1281" y="10.98" width="1.8521" height="1.8521" style="paint-order:markers fill stroke"/></g></g></svg>
