<svg width="18mm" height="36mm" version="1.1" viewBox="0 0 18 36" xmlns="http://www.w3.org/2000/svg"><rect y="1.3229" width="17.992" height="34.66" fill="#1a7619" stroke-dashoffset=".3" stroke-linejoin="round" stroke-width="3.9267" style="paint-order:markers fill stroke"/><g><rect x="5.2917" width="7.9375" height="5.2917" fill="#b4b4b4" stroke-dashoffset=".3" stroke-linejoin="round" stroke-width="3.9688" style="paint-order:markers fill stroke"/><g fill="#272b2f"><ellipse id="pin-20" cx="1.0583" cy="34.925" rx=".79375" ry=".79375" style="paint-order:markers fill stroke"/><ellipse id="pin-19" cx="3.7042" cy="34.925" rx=".79375" ry=".79375" style="paint-order:markers fill stroke"/><ellipse id="pin-18" cx="6.35" cy="34.925" rx=".79375" ry=".79375" style="paint-order:markers fill stroke"/><ellipse id="pin-17" cx="8.9958" cy="34.925" rx=".79375" ry=".79375" style="paint-order:markers fill stroke"/><ellipse id="pin-16" cx="11.642" cy="34.925" rx=".79375" ry=".79375" style="paint-order:markers fill stroke"/><ellipse id="pin-1" cx="16.933" cy="2.3812" rx=".79375" ry=".79375" style="paint-order:markers fill stroke"/><ellipse id="pin-2" cx="16.933" cy="4.8948" rx=".79375" ry=".79375" style="paint-order:markers fill stroke"/><ellipse id="pin-13" cx="16.933" cy="32.544" rx=".79375" ry=".79375" style="paint-order:markers fill stroke"/><ellipse id="pin-12" cx="16.933" cy="30.03" rx=".79375" ry=".79375" style="paint-order:markers fill stroke"/><ellipse id="pin-11" cx="16.933" cy="27.517" rx=".79375" ry=".79375" style="paint-order:markers fill stroke"/><ellipse id="pin-10" cx="16.933" cy="25.003" rx=".79375" ry=".79375" style="paint-order:markers fill stroke"/><ellipse id="pin-9" cx="16.933" cy="22.49" rx=".79375" ry=".79375" style="paint-order:markers fill stroke"/><ellipse id="pin-8" cx="16.933" cy="19.976" rx=".79375" ry=".79375" style="paint-order:markers fill stroke"/><ellipse id="pin-7" cx="16.933" cy="17.462" rx=".79375" ry=".79375" style="paint-order:markers fill stroke"/><ellipse id="pin-3" cx="16.933" cy="7.4083" rx=".79375" ry=".79375" style="paint-order:markers fill stroke"/><ellipse id="pin-4" cx="16.933" cy="9.9219" rx=".79375" ry=".79375" style="paint-order:markers fill stroke"/><ellipse id="pin-5" cx="16.933" cy="12.435" rx=".79375" ry=".79375" style="paint-order:markers fill stroke"/><ellipse id="pin-6" cx="16.933" cy="14.949" rx=".79375" ry=".79375" style="paint-order:markers fill stroke"/><ellipse id="pin-33" cx="1.0583" cy="2.3813" rx=".79375" ry=".79375" style="paint-order:markers fill stroke"/><ellipse id="pin-32" cx="1.0583" cy="4.8948" rx=".79375" ry=".79375" style="paint-order:markers fill stroke"/><ellipse id="pin-21" cx="1.0583" cy="32.544" rx=".79375" ry=".79375" style="paint-order:markers fill stroke"/><ellipse id="pin-22" cx="1.0583" cy="30.03" rx=".79375" ry=".79375" style="paint-order:markers fill stroke"/><ellipse id="pin-23" cx="1.0583" cy="27.517" rx=".79375" ry=".79375" style="paint-order:markers fill stroke"/><ellipse id="pin-24" cx="1.0583" cy="25.003" rx=".79375" ry=".79375" style="paint-order:markers fill stroke"/><ellipse id="pin-25" cx="1.0583" cy="22.49" rx=".79375" ry=".79375" style="paint-order:markers fill stroke"/><ellipse id="pin-26" cx="1.0583" cy="19.976" rx=".79375" ry=".79375" style="paint-order:markers fill stroke"/><ellipse id="pin-27" cx="1.0583" cy="17.462" rx=".79375" ry=".79375" style="paint-order:markers fill stroke"/><ellipse id="pin-31" cx="1.0583" cy="7.4083" rx=".79375" ry=".79375" style="paint-order:markers fill stroke"/><ellipse id="pin-30" cx="1.0583" cy="9.9219" rx=".79375" ry=".79375" style="paint-order:markers fill stroke"/><ellipse id="pin-29" cx="1.0583" cy="12.435" rx=".79375" ry=".79375" style="paint-order:markers fill stroke"/><ellipse id="pin-28" cx="1.0583" cy="14.949" rx=".79375" ry=".79375" style="paint-order:markers fill stroke"/><ellipse id="pin-15" cx="14.288" cy="34.925" rx=".79375" ry=".79375" style="paint-order:markers fill stroke"/><ellipse id="pin-14" cx="16.933" cy="34.925" rx=".79375" ry=".79375" style="paint-order:markers fill stroke"/></g></g></svg>
